<?xml version="1.0" encoding="UTF-8"?><svg id="Logos" xmlns="http://www.w3.org/2000/svg" viewBox="0 0 598.36 305"><defs><style>.cls-1{fill:#fff;}.cls-2{fill-rule:evenodd;}</style></defs><g><path d="M490.68,93.49c7.56,0,13.7,6.13,13.7,13.7v90.57c0,7.56-6.13,13.7-13.7,13.7h-5.8l.05,41.04c0,2.67-.84,4.01-2.2,4.01s-3.24-1.34-5.32-4.01l-31.9-41.04H107.69c-7.56,0-13.7-6.13-13.7-13.7V107.19c0-7.56,6.13-13.7,13.7-13.7H490.68m0-7.99H107.69c-11.96,0-21.69,9.73-21.69,21.69v90.57c0,11.96,9.73,21.69,21.69,21.69H441.6l29.5,37.96c3.66,4.71,7.57,7.1,11.63,7.1,2.61,0,5.06-1.01,6.89-2.85,2.19-2.19,3.3-5.28,3.29-9.16l-.04-33.15c10.93-1.11,19.48-10.36,19.48-21.57V107.19c0-11.96-9.73-21.69-21.69-21.69h0Z"/><g><path class="cls-1" d="M482.73,259.04c-2.11,0-4.43-1.61-6.9-4.78l-31.3-40.27H107.69c-8.66,0-15.7-7.04-15.7-15.7V107.72c0-8.65,7.04-15.7,15.7-15.7H490.68c8.66,0,15.7,7.04,15.7,15.7v90.57c0,8.65-7.04,15.7-15.7,15.7h-3.79l.04,39.04c0,2.24-.52,3.89-1.54,4.92-.71,.72-1.63,1.09-2.65,1.09Z"/><path d="M490.68,94.02c7.56,0,13.7,6.13,13.7,13.7v90.57c0,7.56-6.13,13.7-13.7,13.7h-5.8l.05,41.04c0,2.67-.84,4.01-2.2,4.01s-3.24-1.34-5.32-4.01l-31.9-41.04H107.69c-7.56,0-13.7-6.13-13.7-13.7V107.72c0-7.56,6.13-13.7,13.7-13.7H490.68m0-4H107.69c-9.76,0-17.7,7.94-17.7,17.7v90.57c0,9.76,7.94,17.7,17.7,17.7H443.56l30.7,39.5c2.87,3.69,5.72,5.56,8.48,5.56,1.54,0,2.99-.6,4.07-1.68,1.42-1.42,2.13-3.55,2.13-6.34l-.04-37.04h1.79c9.76,0,17.7-7.94,17.7-17.7V107.72c0-9.76-7.94-17.7-17.7-17.7h0Z"/></g><g><g><path d="M115.29,122.71c-.1-.39-.2-.79-.2-.99,0-3.16,4.64-5.33,8.09-5.33,2.17,0,3.85,.69,4.34,2.57l15.1,53.49,15-53.49c.49-1.87,2.17-2.57,4.34-2.57,3.45,0,8.09,2.27,8.09,5.33,0,.3-.1,.59-.2,.99l-18.95,62.08c-.89,2.96-4.54,4.34-8.29,4.34s-7.3-1.38-8.29-4.34l-19.05-62.08Z"/><path d="M177.86,120.34c0-2.07,1.68-3.95,4.14-3.95h19.54c12.93,0,23.39,4.94,23.39,20.63,0,11.35-5.53,17.47-12.93,19.74l12.93,23.98c.39,.49,.49,1.18,.49,1.58,0,3.26-4.24,6.71-7.99,6.71-1.78,0-3.45-1.09-4.44-3.06l-14.01-27.24h-8.29v25.76c0,2.66-3.16,4.05-6.42,4.05s-6.41-1.38-6.41-4.05V120.34Zm12.83,7.3v21.02h10.86c6.42,0,10.56-2.66,10.56-10.46s-4.15-10.56-10.56-10.56h-10.86Z"/></g><g><polygon class="cls-2" points="389.47 162.78 406.64 162.78 398.06 132.48 389.47 162.78"/><path class="cls-2" d="M469.57,109.85h-207.47c-7.56,0-13.7,6.13-13.7,13.7v57.85c0,7.56,6.13,13.7,13.7,13.7h207.47c7.56,0,13.7-6.13,13.7-13.7v-57.85c0-7.56-6.13-13.7-13.7-13.7Zm-187.18,68.03c8.98,0,9.77-6.42,10.07-10.56,.2-3.06,2.96-4.05,6.32-4.05,4.44,0,6.51,1.28,6.51,6.32,0,11.94-9.77,19.54-23.59,19.54-12.44,0-22.7-6.12-22.7-22.6v-27.54c0-16.48,10.36-22.6,22.8-22.6,13.72,0,23.49,7.3,23.49,18.75,0,5.13-2.07,6.32-6.42,6.32-3.65,0-6.32-1.09-6.41-4.05-.2-3.06-.89-9.77-10.26-9.77-6.61,0-10.36,3.65-10.36,11.35v27.54c0,7.7,3.75,11.35,10.56,11.35Zm80.43,6.61c0,2.66-3.26,4.05-6.42,4.05s-6.41-1.38-6.41-4.05v-28.33h-22.21v28.33c0,2.66-3.26,4.05-6.42,4.05s-6.41-1.38-6.41-4.05V120.34c0-2.76,3.16-3.95,6.41-3.95s6.42,1.18,6.42,3.95v25.76h22.21v-25.76c0-2.76,3.16-3.95,6.41-3.95s6.42,1.18,6.42,3.95v64.15Zm54.68,4.05c-2.17,0-3.85-.69-4.34-2.57l-3.75-13.13h-22.6l-3.75,13.13c-.49,1.87-2.17,2.57-4.34,2.57-3.45,0-8.09-2.17-8.09-5.33,0-.2,.1-.59,.2-.99l19.05-62.08c.89-2.96,4.54-4.34,8.19-4.34s7.4,1.38,8.29,4.34l19.05,62.08c.1,.39,.2,.69,.2,.99,0,3.06-4.64,5.33-8.09,5.33Zm51.12-60.6h-14.41v56.55c0,2.66-3.26,4.05-6.41,4.05s-6.42-1.38-6.42-4.05v-56.55h-14.51c-2.57,0-4.05-2.67-4.05-5.82,0-2.76,1.28-5.72,4.05-5.72h41.75c2.76,0,4.05,2.96,4.05,5.72,0,3.06-1.48,5.82-4.05,5.82Z"/></g></g></g><g><path d="M109.09,51.85v-10.14c0-2.86,.78-4.96,2.33-6.3,1.55-1.34,3.57-2.02,6.07-2.02s4.62,.63,6.23,1.89c1.61,1.26,2.42,2.93,2.42,5.01,0,.9-.18,1.51-.55,1.83-.36,.33-.97,.49-1.82,.49-1.55,0-2.34-.5-2.36-1.49-.02-.31-.05-.59-.09-.82-.04-.23-.13-.53-.29-.91-.16-.38-.36-.69-.6-.94-.24-.25-.61-.47-1.09-.65-.48-.18-1.05-.27-1.71-.27-2.54,0-3.82,1.39-3.82,4.18v10.14c0,2.79,1.3,4.18,3.89,4.18,.77,0,1.42-.12,1.94-.36,.52-.24,.9-.59,1.13-1.04,.23-.45,.39-.85,.47-1.2,.08-.35,.14-.78,.16-1.29,.07-.99,.85-1.49,2.33-1.49,.85,0,1.46,.16,1.83,.49,.38,.33,.56,.94,.56,1.83,0,2.18-.81,3.92-2.42,5.23-1.61,1.31-3.7,1.96-6.27,1.96s-4.51-.67-6.05-2.02c-1.54-1.34-2.31-3.45-2.31-6.3Z"/><path d="M128.96,58.46v-14.32c0-.44,.21-.79,.64-1.05,.42-.27,.98-.4,1.65-.4,.61,0,1.11,.13,1.51,.4s.6,.62,.6,1.06v1.5c.39-.85,.99-1.6,1.82-2.24,.82-.64,1.71-.95,2.65-.95h1.13c.44,0,.83,.21,1.18,.62,.35,.42,.53,.89,.53,1.43s-.18,1.05-.53,1.47c-.35,.42-.74,.62-1.18,.62h-1.13c-1.11,0-2.09,.5-2.93,1.49-.84,.99-1.25,2.28-1.25,3.88v6.49c0,.36-.24,.7-.73,1.02-.48,.31-1.04,.47-1.67,.47s-1.2-.15-1.64-.45c-.44-.3-.65-.65-.65-1.04Z"/><path d="M141.64,52.83v-3.09c0-1.99,.77-3.69,2.33-5.12,1.55-1.43,3.43-2.14,5.63-2.14,2.06,0,3.82,.65,5.29,1.95,1.47,1.3,2.2,2.94,2.2,4.91,0,.72-.09,1.31-.27,1.78s-.46,.8-.84,.99c-.38,.19-.72,.31-1.04,.36-.32,.05-.73,.07-1.24,.07h-7.38v.54c0,1.04,.39,1.88,1.16,2.53,.77,.64,1.8,.96,3.09,.96,.92,0,1.83-.23,2.73-.69,.9-.46,1.48-.69,1.74-.69,.51,0,.93,.24,1.27,.71,.34,.47,.51,.93,.51,1.36,0,.68-.61,1.35-1.84,2.02-1.22,.67-2.74,1-4.56,1-2.59,0-4.71-.68-6.34-2.05-1.64-1.37-2.45-3.17-2.45-5.4Zm4.69-3.05h5.31c.39,0,.66-.06,.82-.19,.16-.12,.24-.37,.24-.73,0-.79-.31-1.44-.93-1.93-.62-.5-1.38-.75-2.27-.75-.85,0-1.59,.24-2.22,.73-.63,.49-.94,1.13-.94,1.92v.95Z"/><path d="M158.87,55.29c0-1.91,.73-3.25,2.18-4.03,1.45-.78,3.55-1.17,6.29-1.17h1.49v-.49c0-.92-.26-1.72-.78-2.41-.52-.69-1.33-1.03-2.42-1.03s-2.02,.21-2.8,.62c-.78,.41-1.22,.62-1.34,.62-.48,0-.87-.24-1.16-.73-.29-.48-.44-1.02-.44-1.6,0-.7,.62-1.31,1.87-1.83,1.25-.52,2.56-.78,3.94-.78,2.64,0,4.6,.67,5.89,2.02,1.28,1.34,1.93,3.03,1.93,5.07v8.9c0,.41-.22,.76-.65,1.05s-.98,.44-1.64,.44c-.61,0-1.11-.15-1.51-.47-.4-.31-.6-.69-.6-1.13v-1.13c-1.67,2.03-3.51,3.05-5.52,3.05-1.38,0-2.51-.42-3.4-1.27-.88-.85-1.33-2.08-1.33-3.71Zm4.69-.59c0,.62,.18,1.09,.53,1.4,.35,.31,.82,.46,1.4,.46,.77,0,1.53-.34,2.25-1.03,.73-.69,1.09-1.45,1.09-2.28v-.72h-.55c-1.48,0-2.63,.14-3.47,.43-.84,.29-1.25,.87-1.25,1.74Z"/><path d="M176.96,54.13v-17.42c0-.41,.24-.75,.73-1.02,.48-.28,1.02-.41,1.6-.41,.63,0,1.18,.13,1.65,.4s.71,.6,.71,1v6.01h4.29c.36,0,.65,.18,.87,.55,.22,.37,.33,.8,.33,1.3s-.11,.93-.33,1.3c-.22,.37-.51,.55-.87,.55h-4.29v7.58c0,.67,.15,1.14,.45,1.42,.3,.28,.83,.42,1.58,.42h1.42c.63,0,1.12,.2,1.47,.61,.35,.41,.53,.89,.53,1.44s-.18,1.08-.53,1.48c-.35,.41-.84,.61-1.47,.61h-1.42c-4.48,0-6.72-1.94-6.72-5.82Z"/><path d="M188.77,52.83v-3.09c0-1.99,.77-3.69,2.33-5.12,1.55-1.43,3.43-2.14,5.63-2.14,2.06,0,3.82,.65,5.29,1.95,1.47,1.3,2.2,2.94,2.2,4.91,0,.72-.09,1.31-.27,1.78s-.46,.8-.84,.99c-.38,.19-.72,.31-1.04,.36-.32,.05-.73,.07-1.24,.07h-7.38v.54c0,1.04,.39,1.88,1.16,2.53,.77,.64,1.8,.96,3.09,.96,.92,0,1.83-.23,2.73-.69,.9-.46,1.48-.69,1.74-.69,.51,0,.93,.24,1.27,.71,.34,.47,.51,.93,.51,1.36,0,.68-.61,1.35-1.84,2.02-1.22,.67-2.74,1-4.56,1-2.59,0-4.71-.68-6.34-2.05-1.64-1.37-2.45-3.17-2.45-5.4Zm4.69-3.05h5.31c.39,0,.66-.06,.82-.19,.16-.12,.24-.37,.24-.73,0-.79-.31-1.44-.93-1.93-.62-.5-1.38-.75-2.27-.75-.85,0-1.59,.24-2.22,.73-.63,.49-.94,1.13-.94,1.92v.95Z"/><path d="M206.9,59.44c-.46-.48-.68-1.07-.68-1.74s.23-1.26,.68-1.74c.45-.48,1.02-.73,1.7-.73,.63,0,1.18,.24,1.64,.73,.47,.48,.7,1.07,.7,1.74s-.23,1.23-.7,1.73c-.47,.5-1.01,.75-1.64,.75-.68,0-1.24-.24-1.7-.73Z"/><path d="M220.28,55.77c0-.56,.21-1.12,.64-1.69,.42-.57,.9-.85,1.44-.85,.31,0,.67,.15,1.07,.45,.4,.3,.79,.64,1.16,1,.38,.37,.91,.7,1.62,1,.7,.3,1.48,.45,2.33,.45,1.16,0,2.13-.27,2.91-.8,.77-.53,1.16-1.32,1.16-2.36,0-.73-.21-1.37-.64-1.94-.42-.57-.98-1.04-1.67-1.42-.69-.38-1.45-.74-2.27-1.09-.82-.35-1.65-.74-2.49-1.18s-1.6-.93-2.29-1.47-1.25-1.27-1.67-2.18c-.42-.91-.64-1.94-.64-3.11,0-1.3,.26-2.45,.78-3.45,.52-1,1.22-1.77,2.09-2.32,.87-.55,1.8-.96,2.8-1.22,.99-.26,2.05-.39,3.16-.39,.63,0,1.3,.04,2,.13,.7,.09,1.45,.23,2.23,.43,.79,.2,1.43,.51,1.93,.93,.5,.42,.75,.92,.75,1.49,0,.54-.17,1.1-.51,1.67-.34,.58-.8,.86-1.38,.86-.22,0-.81-.23-1.78-.69-.97-.46-2.05-.69-3.23-.69-1.31,0-2.32,.25-3.03,.74-.71,.5-1.07,1.18-1.07,2.05,0,.7,.29,1.31,.87,1.83,.58,.52,1.3,.94,2.16,1.27,.86,.33,1.79,.74,2.8,1.24,1.01,.5,1.94,1.04,2.8,1.62,.86,.58,1.58,1.42,2.16,2.53,.58,1.1,.87,2.39,.87,3.87,0,2.48-.79,4.4-2.38,5.75-1.59,1.35-3.68,2.02-6.27,2.02-2.3,0-4.28-.47-5.92-1.42-1.65-.94-2.47-1.97-2.47-3.09Z"/><path d="M240.23,58.46v-24.35c0-.44,.21-.79,.64-1.05,.42-.27,.99-.4,1.69-.4,.65,0,1.21,.13,1.67,.4,.46,.27,.69,.62,.69,1.05v11.15c.36-.78,.94-1.44,1.74-1.98,.8-.54,1.74-.81,2.83-.81,1.67,0,3.13,.73,4.38,2.18,1.25,1.45,1.87,3.19,1.87,5.2v8.61c0,.46-.24,.82-.71,1.09-.47,.27-1.02,.4-1.65,.4s-1.14-.13-1.62-.4-.71-.63-.71-1.09v-8.59c0-.82-.32-1.57-.94-2.25-.63-.68-1.37-1.01-2.22-1.01-.8,0-1.5,.3-2.09,.91-.59,.6-.89,1.39-.89,2.35v8.59c0,.36-.24,.7-.71,1.02s-1.02,.47-1.65,.47-1.21-.15-1.65-.45c-.45-.3-.67-.65-.67-1.03Z"/><path d="M258.21,55.29c0-1.91,.73-3.25,2.18-4.03,1.45-.78,3.55-1.17,6.29-1.17h1.49v-.49c0-.92-.26-1.72-.78-2.41-.52-.69-1.33-1.03-2.42-1.03s-2.02,.21-2.8,.62c-.78,.41-1.22,.62-1.34,.62-.48,0-.87-.24-1.16-.73-.29-.48-.44-1.02-.44-1.6,0-.7,.62-1.31,1.87-1.83,1.25-.52,2.56-.78,3.94-.78,2.64,0,4.6,.67,5.89,2.02,1.28,1.34,1.93,3.03,1.93,5.07v8.9c0,.41-.22,.76-.65,1.05s-.98,.44-1.64,.44c-.61,0-1.11-.15-1.51-.47-.4-.31-.6-.69-.6-1.13v-1.13c-1.67,2.03-3.51,3.05-5.52,3.05-1.38,0-2.51-.42-3.4-1.27-.88-.85-1.33-2.08-1.33-3.71Zm4.69-.59c0,.62,.18,1.09,.53,1.4,.35,.31,.82,.46,1.4,.46,.77,0,1.53-.34,2.25-1.03,.73-.69,1.09-1.45,1.09-2.28v-.72h-.55c-1.48,0-2.63,.14-3.47,.43-.84,.29-1.25,.87-1.25,1.74Z"/><path d="M276.34,58.46v-14.32c0-.44,.21-.79,.64-1.05,.42-.27,.98-.4,1.65-.4,.61,0,1.11,.13,1.51,.4s.6,.62,.6,1.06v1.5c.39-.85,.99-1.6,1.82-2.24,.82-.64,1.71-.95,2.65-.95h1.13c.44,0,.83,.21,1.18,.62,.35,.42,.53,.89,.53,1.43s-.18,1.05-.53,1.47c-.35,.42-.74,.62-1.18,.62h-1.13c-1.11,0-2.09,.5-2.93,1.49-.84,.99-1.25,2.28-1.25,3.88v6.49c0,.36-.24,.7-.73,1.02-.48,.31-1.04,.47-1.67,.47s-1.2-.15-1.64-.45c-.44-.3-.65-.65-.65-1.04Z"/><path d="M289.03,52.83v-3.09c0-1.99,.77-3.69,2.33-5.12,1.55-1.43,3.43-2.14,5.63-2.14,2.06,0,3.82,.65,5.29,1.95,1.47,1.3,2.2,2.94,2.2,4.91,0,.72-.09,1.31-.27,1.78s-.46,.8-.84,.99c-.38,.19-.72,.31-1.04,.36-.32,.05-.73,.07-1.24,.07h-7.38v.54c0,1.04,.39,1.88,1.16,2.53,.77,.64,1.8,.96,3.09,.96,.92,0,1.83-.23,2.73-.69,.9-.46,1.48-.69,1.74-.69,.51,0,.93,.24,1.27,.71,.34,.47,.51,.93,.51,1.36,0,.68-.61,1.35-1.84,2.02-1.22,.67-2.74,1-4.56,1-2.59,0-4.71-.68-6.34-2.05-1.64-1.37-2.45-3.17-2.45-5.4Zm4.69-3.05h5.31c.39,0,.66-.06,.82-.19,.16-.12,.24-.37,.24-.73,0-.79-.31-1.44-.93-1.93-.62-.5-1.38-.75-2.27-.75-.85,0-1.59,.24-2.22,.73-.63,.49-.94,1.13-.94,1.92v.95Z"/><path d="M307.15,59.44c-.46-.48-.68-1.07-.68-1.74s.23-1.26,.68-1.74c.45-.48,1.02-.73,1.7-.73,.63,0,1.18,.24,1.64,.73,.47,.48,.7,1.07,.7,1.74s-.23,1.23-.7,1.73c-.47,.5-1.01,.75-1.64,.75-.68,0-1.24-.24-1.7-.73Z"/><path d="M321.84,58.46v-23.58c0-.46,.21-.82,.62-1.09,.41-.27,.9-.4,1.45-.4h12.94c.48,0,.85,.21,1.11,.62,.25,.41,.38,.88,.38,1.42,0,.58-.13,1.08-.4,1.49-.27,.41-.63,.62-1.09,.62h-10.28v7.27h5.52c.46,0,.82,.19,1.09,.56,.27,.38,.4,.82,.4,1.33,0,.46-.13,.88-.38,1.25s-.62,.56-1.11,.56h-5.52v7.3h10.28c.46,0,.82,.21,1.09,.62,.27,.41,.4,.91,.4,1.49,0,.53-.13,1.01-.38,1.42-.25,.41-.62,.62-1.11,.62h-12.94c-.56,0-1.04-.13-1.45-.4-.41-.27-.62-.63-.62-1.09Z"/><path d="M339.68,57.95c0-.29,.1-.56,.29-.8l4.29-6-4-5.56c-.19-.27-.29-.52-.29-.76,0-.53,.36-1.06,1.09-1.58,.73-.52,1.4-.78,2.03-.78,.48,0,.84,.17,1.05,.51l3.31,5.31,3.34-5.27c.24-.36,.61-.54,1.09-.54,.61,0,1.27,.26,2,.78s1.09,1.05,1.09,1.58c0,.19-.1,.45-.29,.76l-4.03,5.6,4.32,5.96c.19,.19,.29,.46,.29,.8,0,.51-.35,1.02-1.05,1.54-.7,.52-1.37,.78-2,.78-.48,0-.85-.17-1.09-.51l-3.67-5.52-3.63,5.52c-.24,.34-.63,.51-1.16,.51s-1.16-.26-1.89-.78c-.73-.52-1.09-1.04-1.09-1.54Z"/><path d="M357.85,66.49v-22.35c0-.44,.21-.79,.64-1.05,.42-.27,.95-.4,1.58-.4s1.15,.13,1.56,.4c.41,.27,.62,.62,.62,1.06v1.1c.46-.78,1.12-1.44,1.98-1.98,.86-.54,1.83-.81,2.93-.81,1.82,0,3.35,.72,4.61,2.16,1.26,1.44,1.89,3.18,1.89,5.21v2.98c0,1.96-.64,3.69-1.93,5.2-1.28,1.5-2.76,2.25-4.43,2.25-1.04,0-2-.29-2.89-.86-.88-.57-1.51-1.25-1.87-2.04v9.11c0,.39-.24,.73-.71,1.04-.47,.3-1.04,.46-1.69,.46s-1.2-.15-1.64-.45c-.44-.3-.65-.65-.65-1.04Zm4.69-13.02c0,.48,.33,1.05,.98,1.69,.65,.65,1.39,.97,2.22,.97s1.6-.34,2.25-1.03c.65-.68,.98-1.45,.98-2.29v-2.96c0-.84-.33-1.59-.98-2.25-.65-.66-1.43-.99-2.33-.99-.82,0-1.55,.3-2.18,.9-.63,.6-.94,1.38-.94,2.34v3.61Z"/><path d="M376.02,52.83v-3.09c0-1.99,.77-3.69,2.33-5.12,1.55-1.43,3.43-2.14,5.63-2.14,2.06,0,3.82,.65,5.29,1.95,1.47,1.3,2.2,2.94,2.2,4.91,0,.72-.09,1.31-.27,1.78s-.46,.8-.84,.99c-.38,.19-.72,.31-1.04,.36-.32,.05-.73,.07-1.24,.07h-7.38v.54c0,1.04,.39,1.88,1.16,2.53,.77,.64,1.8,.96,3.09,.96,.92,0,1.83-.23,2.73-.69,.9-.46,1.48-.69,1.74-.69,.51,0,.93,.24,1.27,.71,.34,.47,.51,.93,.51,1.36,0,.68-.61,1.35-1.84,2.02-1.22,.67-2.74,1-4.56,1-2.59,0-4.71-.68-6.34-2.05-1.64-1.37-2.45-3.17-2.45-5.4Zm4.69-3.05h5.31c.39,0,.66-.06,.82-.19,.16-.12,.24-.37,.24-.73,0-.79-.31-1.44-.93-1.93-.62-.5-1.38-.75-2.27-.75-.85,0-1.59,.24-2.22,.73-.63,.49-.94,1.13-.94,1.92v.95Z"/><path d="M394.26,58.46v-14.32c0-.44,.21-.79,.64-1.05,.42-.27,.98-.4,1.65-.4,.61,0,1.11,.13,1.51,.4s.6,.62,.6,1.06v1.5c.39-.85,.99-1.6,1.82-2.24,.82-.64,1.71-.95,2.65-.95h1.13c.44,0,.83,.21,1.18,.62,.35,.42,.53,.89,.53,1.43s-.18,1.05-.53,1.47c-.35,.42-.74,.62-1.18,.62h-1.13c-1.11,0-2.09,.5-2.93,1.49-.84,.99-1.25,2.28-1.25,3.88v6.49c0,.36-.24,.7-.73,1.02-.48,.31-1.04,.47-1.67,.47s-1.2-.15-1.64-.45c-.44-.3-.65-.65-.65-1.04Z"/><path d="M407.7,36.77c0-.57,.26-1.06,.77-1.46,.51-.41,1.15-.61,1.9-.61,.68,0,1.25,.2,1.73,.61,.48,.41,.72,.89,.72,1.46s-.24,1.03-.72,1.45c-.48,.42-1.06,.62-1.73,.62-.75,0-1.39-.21-1.9-.62-.52-.42-.77-.9-.77-1.45Zm.44,21.69v-14.32c0-.44,.21-.79,.63-1.05,.42-.27,.96-.4,1.61-.4s1.19,.13,1.62,.4c.43,.27,.65,.62,.65,1.05v14.32c0,.36-.23,.7-.68,1.02-.45,.31-.98,.47-1.59,.47s-1.16-.15-1.59-.45c-.43-.3-.65-.65-.65-1.04Z"/><path d="M415.62,52.83v-3.09c0-1.99,.77-3.69,2.33-5.12,1.55-1.43,3.43-2.14,5.63-2.14,2.06,0,3.82,.65,5.29,1.95,1.47,1.3,2.2,2.94,2.2,4.91,0,.72-.09,1.31-.27,1.78s-.46,.8-.84,.99c-.38,.19-.72,.31-1.04,.36-.32,.05-.73,.07-1.24,.07h-7.38v.54c0,1.04,.39,1.88,1.16,2.53,.77,.64,1.8,.96,3.09,.96,.92,0,1.83-.23,2.73-.69,.9-.46,1.48-.69,1.74-.69,.51,0,.93,.24,1.27,.71,.34,.47,.51,.93,.51,1.36,0,.68-.61,1.35-1.84,2.02-1.22,.67-2.74,1-4.56,1-2.59,0-4.71-.68-6.34-2.05-1.64-1.37-2.45-3.17-2.45-5.4Zm4.69-3.05h5.31c.39,0,.66-.06,.82-.19,.16-.12,.24-.37,.24-.73,0-.79-.31-1.44-.93-1.93-.62-.5-1.38-.75-2.27-.75-.85,0-1.59,.24-2.22,.73-.63,.49-.94,1.13-.94,1.92v.95Z"/><path d="M433.86,58.46v-14.32c0-.44,.21-.79,.64-1.05,.42-.27,.99-.4,1.69-.4,.58,0,1.07,.13,1.47,.4s.6,.62,.6,1.06v1.1c.39-.78,1.01-1.44,1.87-1.98,.86-.54,1.86-.81,3-.81,1.67,0,3.13,.73,4.38,2.18,1.25,1.45,1.87,3.19,1.87,5.2v8.61c0,.46-.24,.82-.71,1.09-.47,.27-1.02,.4-1.65,.4s-1.14-.13-1.62-.4c-.47-.27-.71-.63-.71-1.09v-8.59c0-.85-.31-1.6-.94-2.26-.63-.66-1.37-1-2.22-1-.8,0-1.5,.3-2.09,.91-.59,.6-.89,1.39-.89,2.35v8.59c0,.36-.24,.7-.71,1.02-.47,.31-1.02,.47-1.65,.47s-1.21-.15-1.65-.45c-.45-.3-.67-.65-.67-1.04Z"/><path d="M452.29,52.83v-2.91c0-2.23,.65-4.03,1.96-5.4,1.31-1.37,3.27-2.05,5.89-2.05,1.65,0,3.03,.29,4.14,.87,1.11,.58,1.67,1.24,1.67,1.96,0,.51-.18,1.02-.54,1.53-.36,.51-.8,.76-1.31,.76-.15,0-.58-.16-1.29-.49-.71-.33-1.48-.49-2.31-.49-2.35,0-3.52,1.11-3.52,3.32v2.89c0,2.21,1.19,3.32,3.56,3.32,.82,0,1.59-.18,2.29-.53,.7-.35,1.15-.53,1.34-.53,.58,0,1.06,.24,1.44,.73,.38,.48,.56,.98,.56,1.49,0,.75-.59,1.44-1.76,2.05-1.18,.62-2.59,.93-4.23,.93-2.64,0-4.61-.68-5.92-2.04-1.31-1.36-1.96-3.16-1.96-5.41Z"/><path d="M467.84,52.83v-3.09c0-1.99,.77-3.69,2.33-5.12,1.55-1.43,3.43-2.14,5.63-2.14,2.06,0,3.82,.65,5.29,1.95,1.47,1.3,2.2,2.94,2.2,4.91,0,.72-.09,1.31-.27,1.78s-.46,.8-.84,.99c-.38,.19-.72,.31-1.04,.36-.32,.05-.73,.07-1.24,.07h-7.38v.54c0,1.04,.39,1.88,1.16,2.53,.77,.64,1.8,.96,3.09,.96,.92,0,1.83-.23,2.73-.69,.9-.46,1.48-.69,1.74-.69,.51,0,.93,.24,1.27,.71,.34,.47,.51,.93,.51,1.36,0,.68-.61,1.35-1.84,2.02-1.22,.67-2.74,1-4.56,1-2.59,0-4.71-.68-6.34-2.05-1.64-1.37-2.45-3.17-2.45-5.4Zm4.69-3.05h5.31c.39,0,.66-.06,.82-.19,.16-.12,.24-.37,.24-.73,0-.79-.31-1.44-.93-1.93-.62-.5-1.38-.75-2.27-.75-.85,0-1.59,.24-2.22,.73-.63,.49-.94,1.13-.94,1.92v.95Z"/><path d="M485.96,59.44c-.46-.48-.68-1.07-.68-1.74s.23-1.26,.68-1.74c.45-.48,1.02-.73,1.7-.73,.63,0,1.18,.24,1.64,.73,.47,.48,.7,1.07,.7,1.74s-.23,1.23-.7,1.73c-.47,.5-1.01,.75-1.64,.75-.68,0-1.24-.24-1.7-.73Z"/></g></svg>